<?xml version="1.0" standalone="no"?>
<!DOCTYPE svg PUBLIC "-//W3C//DTD SVG 20010904//EN"
 "http://www.w3.org/TR/2001/REC-SVG-20010904/DTD/svg10.dtd">
<svg version="1.0" xmlns="http://www.w3.org/2000/svg"
 width="256.000000pt" height="256.000000pt" viewBox="0 0 256.000000 256.000000"
 preserveAspectRatio="xMidYMid meet">
<metadata>
Created by potrace 1.14, written by Peter Selinger 2001-2017
</metadata>
<g transform="translate(0.000000,256.000000) scale(0.100000,-0.100000)"
fill="#000000" stroke="none">
<path d="M160 2543 c-46 -23 -121 -99 -143 -145 -16 -34 -17 -110 -15 -1130
l3 -1094 35 -49 c20 -27 58 -65 85 -85 l49 -35 1106 0 1106 0 49 35 c27 20 65
58 85 85 l35 49 0 1106 0 1106 -35 49 c-20 27 -58 65 -85 85 l-49 35 -1096 2
c-1017 3 -1098 1 -1130 -14z m695 -486 c32 -17 115 -121 400 -501 l360 -479 5
449 c6 505 4 495 80 534 80 41 170 20 224 -53 21 -28 21 -36 24 -708 2 -656 2
-682 -17 -724 -22 -50 -64 -80 -123 -90 -30 -5 -50 -1 -91 19 -49 23 -71 50
-342 407 -159 211 -321 424 -360 473 l-70 91 -5 -447 c-5 -434 -6 -447 -26
-475 -33 -44 -81 -67 -139 -67 -68 0 -114 27 -143 84 l-22 45 2 682 c3 674 3
682 24 710 55 74 141 94 219 50z"/>
</g>
</svg>
